<svg width="124" height="23" fill="none" xmlns="http://www.w3.org/2000/svg"><path d="M83.117 15.194v-.674h4.126L83.117 2.993V0h2.324l7.74 20.843 2.67 1.44v.3h-8.878v-.3l2.546-1.456-2.023-5.633h-4.38zm22.792 5.413l2.653 1.692v.283h-5.955V22.3l2.622-1.692V1.757L102.607.3V0h4.85l13.177 18.005V1.975L117.98.285V0H124v.284l-2.654 1.692v20.606l-.998.418-14.439-19.702v17.309zM0 22.283l2.573-1.44V1.757L0 .3V0h16.133v5.74h-.145L13.269.675H5.906v9.99h4.774l1.893-2.885h.27v6.526h-.27L10.68 11.34H5.906v10.568h8.442l3.538-5.08.14.015-.835 5.74H0v-.3zM83.117 0v2.993L78.99 14.52h4.127v.674h-4.38l-2.007 5.632h.017l3.322 1.456v.3h-7.001v-.3l2.826-1.44 6.667-18.427L81.061.3V0h2.055zM24.96 0h8.814v.3l-2.908 1.457v20.151h7.271l3.539-5.08.14.015-.836 5.74H24.96v-.3l2.573-1.44V1.757L24.96.3V0zm23.73 22.283l2.573-1.44V1.757L48.69.3V0h16.133v5.74h-.145L61.959.675h-7.362v9.99h4.773l1.894-2.885h.27v6.526h-.27L59.37 11.34h-4.773v10.568h8.441l3.539-5.08.14.015-.836 5.74H48.69v-.3z" fill="#222"/></svg>