<svg width="31" height="30" fill="none" xmlns="http://www.w3.org/2000/svg"><path fill-rule="evenodd" clip-rule="evenodd" d="M3.328 5.72H3.31a1.867 1.867 0 00-.166.01 3.354 3.354 0 00-1.527.528c-.9.587-1.616 1.69-1.616 3.528v12.863A2.022 2.022 0 000 22.79a3.305 3.305 0 00.412 1.548c.528.944 1.589 1.69 3.396 1.69h22.225v-2H3.808c-1.177 0-1.519-.432-1.649-.665A1.307 1.307 0 012 22.738l.002-.026V9.786c0-1.253.447-1.683.71-1.855a1.355 1.355 0 01.621-.21h4.49v-2H3.328z" fill="#CBC7C7"/><path fill-rule="evenodd" clip-rule="evenodd" d="M29.215 29.55L1.373 1.707 2.787.293 30.63 28.136l-1.414 1.414z" fill="#CBC7C7"/><path fill-rule="evenodd" clip-rule="evenodd" d="M12.061 11.148a4.757 4.757 0 106.652 6.681l1.588 1.216a6.757 6.757 0 11-9.447-9.492l1.207 1.595zm-.128-7.439c-.084.126-.256.372-.46.663l-1.637-1.15c.22-.314.383-.547.445-.64.351-.528.864-.74 1.205-.826a2.458 2.458 0 01.634-.073h5.692a1.818 1.818 0 01.188.004c.113.007.27.025.445.069.342.086.854.298 1.206.825.137.206.7 1.004 1.244 1.773l.721 1.016.23.324c.048.013.132.027.262.027h4.512a1.86 1.86 0 01.167.008 3.355 3.355 0 011.527.528c.9.588 1.616 1.69 1.616 3.53v12.325h-2V9.787c0-1.253-.447-1.682-.71-1.854a1.355 1.355 0 00-.617-.21l-.005-.001h-4.49c-.53 0-.943-.112-1.258-.281a1.751 1.751 0 01-.37-.263 1.435 1.435 0 01-.177-.202l-.317-.446a825.13 825.13 0 01-.723-1.02A154.33 154.33 0 0118 3.71a.46.46 0 00-.13-.026h-5.816a.458.458 0 00-.122.026zm10 2.108zm-.137-.14l.001.001z" fill="#CBC7C7"/><path d="M24.689 12.341a1.345 1.345 0 100-2.69 1.345 1.345 0 000 2.69z" fill="#BBB"/></svg>