<svg width="58" height="42" fill="none" xmlns="http://www.w3.org/2000/svg"><path fill-rule="evenodd" clip-rule="evenodd" d="M8.798 2C8.519 2 8 2.34 8 3.155L8.003 37h-2L6 3.155C6 1.59 7.09 0 8.798 0h41.404C51.91 0 53 1.59 53 3.155v33.72h-2V3.156C51 2.34 50.48 2 50.202 2H8.798z" fill="#C8AB90"/><path fill-rule="evenodd" clip-rule="evenodd" d="M32.235 36.743h-3.178v2h5.178v-.94h21.731c-.034.159-.1.36-.219.556-.215.356-.696.859-1.973.9M58 37.575v.025a2.335 2.335 0 01-.01.172 3.837 3.837 0 01-.533 1.623c-.581.96-1.697 1.8-3.617 1.862-1.3.042-7.515.042-13.368.032a6272.221 6272.221 0 01-10.46-.028l-.958-.003.003-1 .004-1 .958.003a8167.716 8167.716 0 0010.456.028c5.883.01 12.044.01 13.3-.03M58 37.574v-1.772H32.235v.94" fill="#C8AB90"/><path fill-rule="evenodd" clip-rule="evenodd" d="M0 35.803h27.25v.94h7.806v2H25.25v-.94H2.038c.036.152.103.343.225.533.229.355.758.88 2.16.923M0 35.803v1.772zm0 1.772v.027a1.956 1.956 0 00.01.176 3.736 3.736 0 00.571 1.641c.62.962 1.787 1.778 3.781 1.84 1.379.041 9.07.041 16.382.03a9942.619 9942.619 0 0013.109-.027l1.205-.003-.002-1-.003-1-1.206.003a13144.431 13144.431 0 01-13.106.028c-7.34.01-14.98.01-16.317-.03M32.009 10h4.165l6.214 6.215-4.022 4.827-2.779-1.39V29h-5.69v-2h3.69V16.416l4.256 2.128 1.84-2.207L35.345 12h-1.797c-.58 1.313-2.035 2.931-4.823 2.931v-2c2.225 0 2.997-1.498 3.123-2.127l.16-.804z" fill="#C8AB90"/><path fill-rule="evenodd" clip-rule="evenodd" d="M26.028 10h-4.165l-6.215 6.215 4.023 4.827 2.778-1.39V29h7.448v-2H24.45V16.416l-4.256 2.128-1.84-2.207L22.692 12h1.798c.58 1.313 2.035 2.931 4.822 2.931v-2c-2.225 0-2.997-1.498-3.123-2.127l-.16-.804z" fill="#C8AB90"/></svg>