<svg width="43" height="43" fill="none" xmlns="http://www.w3.org/2000/svg"><path fill-rule="evenodd" clip-rule="evenodd" d="M21.71 2C11.056 2 2.419 10.637 2.419 21.291c0 3.681 1.01 7.113 2.809 10.03l-1.703 1.05C1.532 29.139.42 25.343.42 21.291.419 9.533 9.95 0 21.709 0 33.47 0 43 9.532 43 21.291c0 4.11-1.165 7.95-3.183 11.205l-1.7-1.054A19.197 19.197 0 0041 21.292C41 10.636 32.364 2 21.71 2z" fill="#C8AB90"/><path fill-rule="evenodd" clip-rule="evenodd" d="M6.279 28.13l-1.072 4.72H.987v-2H3.61l.718-3.162 1.95.444zm33.476 2.741l-.662-3.166-1.958.41.995 4.756H42v-2h-2.245zM23.248 13.286l-.018-1v1h-5.275c-.306 0-.438.06-.478.082-.028.015-.032.024-.034.028v.001a.231.231 0 00-.019.106l.008.051v1.727c0 .594-.21 1.112-.62 1.48-.377.338-.825.464-1.159.513-.343.05-.664.035-.884.013a4.044 4.044 0 01-.364-.054l-.028-.006-.01-.002-.004-.001h-.001s-.002 0 .22-.976l.22-.975h-.001a1.91 1.91 0 00.56.023.746.746 0 00.071-.014v-1.596a2.272 2.272 0 01.213-1.165c.162-.333.433-.66.85-.896.409-.23.9-.339 1.46-.339h5.257c.006 0 .016 0 .03-.002a2.843 2.843 0 00.707-.152c.421-.15.792-.404.979-.839l1.837.79c-.486 1.13-1.424 1.675-2.143 1.932a4.837 4.837 0 01-1.327.27h-.047zM14.8 15.273h-.002l-.002-.001h.004zm8.429-1.987v-1l.018 1h-.017z" fill="#C8AB90"/><path fill-rule="evenodd" clip-rule="evenodd" d="M19.225 5.886a2.732 2.732 0 00-.428.003 2.726 2.726 0 00-1.03.297 2.555 2.555 0 00-1.064 1.06c-.136.25-.24.528-.309.836a3.99 3.99 0 00-.72.107c-.471.117-1.021.358-1.453.85-.445.506-.678 1.178-.678 1.986v7.167a1 1 0 002 0v-7.167c0-.412.11-.587.18-.666.082-.094.218-.176.433-.229a2.3 2.3 0 01.653-.053 2.732 2.732 0 01.281.028l.008.001 1.188.233V9.124c0-.498.094-.776.174-.923a.559.559 0 01.236-.244.728.728 0 01.367-.077l.049.006h7.41c.59 0 .947.333 1.21.86a3.53 3.53 0 01.318 1.004l.004.028v2.766a2.017 2.017 0 00-.287-.608 1.846 1.846 0 00-.918-.686v-.478a1 1 0 10-2 0v2.647l1.21-.281a.454.454 0 01.082-.004.91.91 0 01.012.162v1.449a2.44 2.44 0 00.013.411c.025.245.092.589.268.946.18.366.475.743.938 1.021.46.277 1.022.42 1.682.42h1V9.661l-.005-.052-.995.104.995-.104v-.004l-.001-.004-.002-.013-.004-.037-.018-.119a5.534 5.534 0 00-.503-1.58c-.442-.886-1.351-1.966-3-1.966h-7.296z" fill="#C8AB90"/><path fill-rule="evenodd" clip-rule="evenodd" d="M15.277 18.045a1 1 0 011 1c0 3.54 2.614 6.528 5.5 6.528 2.887 0 5.5-2.989 5.5-6.528a1 1 0 112 0c0 4.316-3.207 8.528-7.5 8.528-4.292 0-7.5-4.212-7.5-8.528a1 1 0 011-1z" fill="#C8AB90"/><path fill-rule="evenodd" clip-rule="evenodd" d="M16.735 24.887h2v3.94l3.17.957 2.96-.988v-3.91h2v5.35l-4.93 1.647-5.2-1.571v-5.425z" fill="#C8AB90"/><path fill-rule="evenodd" clip-rule="evenodd" d="M15.606 28.463h2.129v2h-1.288l-2.373 2.425-.343.043-.004.001-.025.004c-.025.003-.064.01-.117.019a10.826 10.826 0 00-2.011.58c-1.23.49-2.593 1.307-3.448 2.628l-1.68-1.086c1.171-1.81 2.965-2.833 4.387-3.4a12.83 12.83 0 012.283-.67l2.49-2.544zm11.291 1.945h-.977v-2h1.762l2.522 2.34a9.195 9.195 0 012.318.53c1.506.557 3.346 1.687 4.658 3.944l-1.73 1.005c-1.028-1.77-2.45-2.64-3.623-3.074a7.203 7.203 0 00-1.486-.377 5.398 5.398 0 00-.529-.048h-.019l-.393.002-2.503-2.322z" fill="#C8AB90"/><path fill-rule="evenodd" clip-rule="evenodd" d="M36.744 34.883a1 1 0 01.307 1.38l-.844-.536c.844.536.844.537.843.538l-.002.004-.005.007-.014.021a6.398 6.398 0 01-.21.293c-.143.188-.354.447-.638.754a14.588 14.588 0 01-2.638 2.216c-2.42 1.604-6.183 3.166-11.623 3.166-5.438 0-9.294-1.56-11.806-3.155a15.976 15.976 0 01-2.768-2.202 11.213 11.213 0 01-.681-.747 6.978 6.978 0 01-.226-.288l-.015-.02-.005-.008-.002-.002-.001-.001.817-.576-.818.575a1 1 0 011.635-1.153l.003.005.026.034a9.204 9.204 0 00.686.77 13.84 13.84 0 002.421 1.924c2.214 1.406 5.702 2.844 10.734 2.844 5.031 0 8.412-1.437 10.518-2.833a12.587 12.587 0 002.276-1.909 8.237 8.237 0 00.627-.76l.022-.033.002-.003v.001c-.001 0-.001.001.8.511l-.801-.51.002-.004a1 1 0 011.378-.303z" fill="#C8AB90"/><path fill-rule="evenodd" clip-rule="evenodd" d="M22.003 30.688l2.889 2.778 4.455-2.504.98 1.743-5.75 3.232-2.637-2.535-2.79 2.442-6.104-3.064.898-1.787 4.901 2.46 3.158-2.766z" fill="#C8AB90"/><path fill-rule="evenodd" clip-rule="evenodd" d="M20.92 32.15v-1.318h2v1.318h-2zm7.158-14.466V16.53h2v1.825l-.982 1.3-1.596-1.203.578-.767zM14.456 19.69l-.725-1.033 1.637-1.15.725 1.034-1.637 1.15z" fill="#C8AB90"/></svg>