<svg width="46" height="45" fill="none" xmlns="http://www.w3.org/2000/svg"><path fill-rule="evenodd" clip-rule="evenodd" d="M27.843 16.613l-4.578 4.578-3.25-3.25 1.413-1.415 1.837 1.837 3.164-3.164 1.414 1.414z" fill="#C8AB90"/><path fill-rule="evenodd" clip-rule="evenodd" d="M24.023 11.635a6.044 6.044 0 100 12.087 6.044 6.044 0 000-12.087zm-8.043 6.044a8.044 8.044 0 1116.087 0 8.044 8.044 0 01-16.087 0zM6.881 2.73h3.856v2H8.88v18.418h-2V2.73zM34.72 7.686H13.268v-2H34.72v2z" fill="#C8AB90"/><path fill-rule="evenodd" clip-rule="evenodd" d="M39.666 15.309h5.437v29.69H.003V15.352h5.525v2H2.004V43h41.099V17.31h-3.437v-2z" fill="#C8AB90"/><path fill-rule="evenodd" clip-rule="evenodd" d="M22.645 26.139l21.943 17.073-1.229 1.578-20.715-16.118L1.914 44.79.688 43.212l21.958-17.073zM9.737 0h28.64v23.346h-2V2h-24.64v24.027h-2V0z" fill="#C8AB90"/><path fill-rule="evenodd" clip-rule="evenodd" d="M14.094 30.963L.293 17.163l1.414-1.415 13.801 13.8-1.414 1.415zm15.5-1.414l13.801-13.801 1.415 1.414-13.802 13.8-1.414-1.413z" fill="#C8AB90"/></svg>