<svg width="37" height="48" fill="none" xmlns="http://www.w3.org/2000/svg"><path fill-rule="evenodd" clip-rule="evenodd" d="M2.999 7.889h23v33.889h-23V7.888zm2 2v29.889h19V9.888h-19zM15.71 44.943h-2.775v-2h2.775v2z" fill="#C8AB90"/><path fill-rule="evenodd" clip-rule="evenodd" d="M4.745 2.111C3.212 2.111 2 3.328 2 4.791v38.53C2 44.784 3.212 46 4.745 46h19.732c1.533 0 2.745-1.217 2.745-2.68V4.79c0-1.463-1.212-2.68-2.745-2.68H4.745zM0 4.791C0 2.19 2.141.111 4.745.111h19.732c2.604 0 4.745 2.079 4.745 4.68v38.53c0 2.6-2.141 4.68-4.745 4.68H4.745C2.141 48 0 45.92 0 43.32V4.79z" fill="#C8AB90"/><path d="M11 4.223h7v1.555h-7V4.223z" fill="#B59475"/><path d="M7.999 13.557h23.333V36.89H8V13.557z" fill="#F2F1F0"/><path fill-rule="evenodd" clip-rule="evenodd" d="M8.999 16.889v16.666h26V16.89h-26zm-2-.442c0-.759.576-1.558 1.502-1.558h26.996c.928 0 1.502.8 1.502 1.558v17.55c0 .759-.576 1.558-1.502 1.558H8.501c-.926 0-1.502-.8-1.502-1.558v-17.55z" fill="#C8AB90"/><path d="M8.777 19H36v1.556H8.777V19zm0 5.445H36v1.556H8.777v-1.556zm1.557 3.11h8.555v1.555h-8.555v-1.555z" fill="#B59475"/><path fill-rule="evenodd" clip-rule="evenodd" d="M20.223 27.334H33.89v5.111H20.223v-5.111zm2 2v1.111h9.667v-1.111h-9.667z" fill="#C8AB90"/></svg>