<svg width="44" height="47" fill="none" xmlns="http://www.w3.org/2000/svg"><path fill-rule="evenodd" clip-rule="evenodd" d="M22 25.775a1.04 1.04 0 100 2.082 1.04 1.04 0 000-2.082zm-3.04 1.041a3.04 3.04 0 116.081 0 3.04 3.04 0 01-6.082 0z" fill="#C8AB90"/><path fill-rule="evenodd" clip-rule="evenodd" d="M34.47 26.817c0-6.896-5.533-12.47-12.34-12.47v-2c7.93 0 14.34 6.488 14.34 14.47s-6.41 14.47-14.34 14.47c-4.005 0-7.659-1.66-10.237-4.338l1.44-1.387a12.196 12.196 0 008.798 3.724c6.806 0 12.34-5.573 12.34-12.469z" fill="#C8AB90"/><path fill-rule="evenodd" clip-rule="evenodd" d="M22 8.63c-10.042 0-18.183 8.142-18.183 18.184 0 10.043 8.141 18.184 18.184 18.184 10.042 0 18.183-8.14 18.183-18.183S32.044 8.63 22.001 8.63zM1.818 26.815C1.817 15.667 10.853 6.631 22 6.631c11.147 0 20.183 9.036 20.183 20.183 0 11.148-9.036 20.184-20.183 20.184-11.148 0-20.184-9.036-20.184-20.183z" fill="#C8AB90"/><path fill-rule="evenodd" clip-rule="evenodd" d="M22 2.918a1.857 1.857 0 100 3.714 1.857 1.857 0 000-3.714zm-3.857 1.857a3.857 3.857 0 117.714 0 3.857 3.857 0 01-7.714 0zm-11.84.614l3.63 3.698-5.55 5.65-3.822-3.5 5.742-5.848zm-2.864 5.77l.871.798 2.82-2.87-.828-.843L3.44 11.16zm34.258-5.77l5.74 5.847-3.822 3.5-5.548-5.65 3.63-3.697zm-.827 3.697l2.819 2.871.871-.798-2.863-2.916-.827.843zM21.783 28.45l-9.17 9.169-1.414-1.414 9.17-9.17 1.414 1.414z" fill="#C8AB90"/></svg>