<svg width="19" height="16" fill="none" xmlns="http://www.w3.org/2000/svg"><path d="M17.167.002c-.222.016-.44.067-.646.152h-.002c-.198.078-1.136.468-2.562 1.06L8.845 3.346C5.177 4.873 1.57 6.378 1.57 6.378l.043-.016s-.249.08-.508.257a1.4 1.4 0 00-.406.388 1.13 1.13 0 00-.192.76c.062.495.386.792.62.956.235.166.459.243.459.243h.005l3.382 1.128c.151.481 1.03 3.34 1.241 3.999.125.393.246.639.398.827.073.096.16.176.262.24a.772.772 0 00.17.073l-.034-.008c.01.002.019.01.026.013.028.008.047.01.082.016.535.16.965-.168.965-.168l.025-.02 1.996-1.798 3.346 2.54.076.032c.697.303 1.404.134 1.777-.163.376-.3.522-.682.522-.682l.024-.062 2.586-13.109c.073-.323.092-.626.011-.92a1.24 1.24 0 00-1.28-.902zm-.07 1.404c-.002.044.006.039-.013.122v.007l-2.562 12.972c-.01.019-.03.06-.08.1-.055.042-.098.069-.323-.02l-4.092-3.104-2.472 2.23.519-3.283 6.686-6.167c.276-.254.184-.307.184-.307.02-.312-.416-.092-.416-.092l-8.432 5.17-.003-.014-4.04-1.347V7.67l-.011-.002a.186.186 0 00.02-.008l.023-.01.021-.008 7.277-3.033 5.11-2.132a565.328 565.328 0 012.534-1.048c.057-.022.03-.022.07-.022z" fill="#fff"/></svg>