<svg width="17" height="16" fill="none" xmlns="http://www.w3.org/2000/svg"><path d="M.5 16l1.13-4.109A7.882 7.882 0 01.567 7.927C.569 3.557 4.143 0 8.533 0c2.131 0 4.131.827 5.636 2.325a7.864 7.864 0 012.331 5.61c-.002 4.371-3.576 7.928-7.967 7.928a8.002 8.002 0 01-3.81-.966L.5 16zm4.419-2.538c1.123.663 2.194 1.06 3.612 1.061 3.65 0 6.622-2.956 6.624-6.59.001-3.641-2.957-6.593-6.619-6.594-3.652 0-6.623 2.956-6.624 6.589 0 1.483.436 2.594 1.17 3.756l-.67 2.432 2.507-.654zm7.628-3.643c-.05-.082-.183-.132-.382-.231-.2-.1-1.178-.579-1.36-.645-.183-.066-.316-.099-.449.1-.133.198-.514.644-.63.776-.116.132-.233.149-.432.05-.199-.1-.84-.308-1.6-.984a5.968 5.968 0 01-1.108-1.372c-.116-.198-.012-.306.087-.404.09-.089.2-.232.3-.348.1-.114.133-.197.2-.33.066-.132.034-.248-.017-.347-.05-.099-.448-1.074-.613-1.47-.162-.387-.327-.335-.448-.34l-.382-.007a.73.73 0 00-.53.248c-.183.198-.697.677-.697 1.652 0 .976.713 1.918.812 2.05.1.132 1.403 2.133 3.4 2.991.475.204.846.326 1.135.417.477.151.911.13 1.254.079.382-.057 1.178-.48 1.344-.942.166-.463.166-.86.116-.943z" fill="#fff"/></svg>