<svg width="56" height="56" fill="none" xmlns="http://www.w3.org/2000/svg"><path d="M0 28c0 15.464 12.536 28 28 28s28-12.536 28-28S43.464 0 28 0 0 12.536 0 28z" fill="#fff"/><path fill-rule="evenodd" clip-rule="evenodd" d="M28 44c-8.837 0-16-7.163-16-16s7.163-16 16-16 16 7.163 16 16-7.163 16-16 16zm0 1c-9.389 0-17-7.611-17-17s7.611-17 17-17 17 7.611 17 17-7.611 17-17 17z" fill="#E1E1E1"/><path fill-rule="evenodd" clip-rule="evenodd" d="M32.53 26.969l-5.5-5.5-1.06 1.06 4.97 4.97-4.97 4.97 1.06 1.06 5.5-5.5a.75.75 0 000-1.06z" fill="#C0A78F"/></svg>