<svg width="20" height="22" fill="none" xmlns="http://www.w3.org/2000/svg"><path fill-rule="evenodd" clip-rule="evenodd" d="M-.001 4.002h3.735v1H1V20.36h2.68v1H0V4.002zM8.586 1.38c-1.18 0-2.195 1.037-2.195 2.388v1.426h-1V3.768C5.39 1.93 6.79.381 8.586.381c1.797 0 3.196 1.55 3.196 3.387v1.426h-1V3.768c0-1.351-1.015-2.387-2.196-2.387z" fill="#333"/><path d="M3.759 4.502h15.74V20.86H3.759V4.502z" fill="#E1C4A9"/><path fill-rule="evenodd" clip-rule="evenodd" d="M3.259 4.002h16.74V21.36H3.259V4.002zm1 1V20.36h14.74V5.002H4.259z" fill="#000"/><path fill-rule="evenodd" clip-rule="evenodd" d="M11.822 1.38c-1.231 0-2.196.956-2.196 2.094v2.798h-1V3.475c0-1.727 1.45-3.093 3.196-3.093 1.746 0 3.196 1.366 3.196 3.093v2.798h-1V3.475c0-1.138-.965-2.093-2.196-2.093z" fill="#333"/></svg>