<svg width="52" height="57" fill="none" xmlns="http://www.w3.org/2000/svg"><g filter="url(#filter0_d)" fill-rule="evenodd" clip-rule="evenodd" fill="#C0A78F"><path d="M25.887 2a2.071 2.071 0 00-2.07 2.071 1 1 0 11-2 0 4.071 4.071 0 018.142 0 4.125 4.125 0 01-1.269 2.953 5.454 5.454 0 01-.535.415l-.11.078c-.19.14-.356.275-.5.44-.26.295-.546.79-.546 1.803a1 1 0 01-2 0c0-1.458.437-2.433 1.042-3.122a4.93 4.93 0 01.826-.736l.237-.171c.105-.074.163-.115.213-.161.393-.39.642-.925.642-1.499A2.071 2.071 0 0025.887 2z"/><path d="M25.714 8.811a1 1 0 01.633 0l16.197 5.415a1 1 0 01-.634 1.897l-15.88-5.309-15.928 5.31a1 1 0 11-.633-1.898l16.245-5.415z"/><path d="M7.054 13.33a1 1 0 011.405-.132l.004.003.033.026a10.658 10.658 0 00.878.582c.657.39 1.678.924 3.095 1.462 2.833 1.074 7.265 2.171 13.564 2.171 6.298 0 10.721-1.097 13.545-2.171 1.414-.538 2.43-1.071 3.083-1.462a10.51 10.51 0 00.873-.58l.032-.026h.001l.001-.002h.001l.001-.001a1 1 0 011.282 1.536l-.643-.767.641.767v.001l-.003.002-.007.006-.019.015a7.18 7.18 0 01-.285.215 12.5 12.5 0 01-.849.551c-.75.448-1.87 1.033-3.397 1.614-3.056 1.163-7.721 2.302-14.257 2.302-6.537 0-11.21-1.14-14.273-2.302-1.53-.58-2.656-1.165-3.409-1.613a12.61 12.61 0 01-.852-.551 7.141 7.141 0 01-.286-.214l-.02-.016-.006-.005-.002-.002h-.001c0-.001-.001-.002.638-.77l-.64.768a1 1 0 01-.128-1.408z"/><path d="M43.615 13.053a1 1 0 011.367.364c1.716 2.962 2.732 5.92 3.014 8.869a1 1 0 01-.529.979L42.92 25.67a1 1 0 01-1.024-.053l-2.037-1.364-.064.07a10.185 10.185 0 00-1.368 1.97c-.987 1.822-1.965 4.751-1.755 9.078.22 4.54.117 7.293-.049 8.932-.083.82-.182 1.37-.268 1.73a4.624 4.624 0 01-.163.54 1.41 1.41 0 01-.02.046l-.008.02-.004.008-.002.004v.002c-.001 0-.002.002-.903-.431l.901.432a1 1 0 01-.324.385c-.31.218-.718.358-1.078.457-.388.107-.843.198-1.325.277a42.47 42.47 0 01-3.2.369 91.947 91.947 0 01-4.103.243l-.069.002-.018.001h-.006l-.033-1-.033 1h-.024l-.069-.003a70.958 70.958 0 01-1.19-.052c-.773-.04-1.82-.1-2.911-.191a42.463 42.463 0 01-3.2-.369c-.482-.079-.937-.17-1.325-.277-.36-.1-.768-.239-1.078-.457a1 1 0 01-.324-.385l.901-.432a45.89 45.89 0 01-.902.43l-.001-.001-.002-.004-.004-.009-.009-.019a2.359 2.359 0 01-.065-.17 4.658 4.658 0 01-.117-.415c-.086-.36-.185-.91-.268-1.73-.166-1.64-.27-4.393-.049-8.933.21-4.308-.869-7.224-1.955-9.042a10.31 10.31 0 00-1.59-2.053l-1.61 1.29a1 1 0 01-1.093.104l-4.548-2.405a1 1 0 01-.528-.98c.281-2.948 1.297-5.906 3.013-8.868a1 1 0 111.731 1.002c-1.464 2.527-2.347 4.992-2.677 7.398l3.364 1.778 1.747-1.399a1 1 0 011.193-.042l-.568.823c.568-.823.569-.823.57-.822l.003.002.007.005.019.014.058.043c.048.036.113.086.192.151.158.131.375.322.629.579a12.316 12.316 0 011.805 2.354c1.283 2.149 2.465 5.454 2.236 10.165-.218 4.479-.112 7.126.04 8.634.07.695.15 1.14.21 1.406.059.02.126.04.201.06.293.08.672.159 1.117.232.89.145 1.976.26 3.042.349a90.303 90.303 0 003.935.234l.074.003.053.002.054-.002a65.415 65.415 0 001.161-.05c.761-.04 1.786-.1 2.848-.187a40.515 40.515 0 003.043-.35c.445-.072.824-.15 1.117-.231a4.39 4.39 0 00.2-.06c.06-.266.14-.711.21-1.406.153-1.508.259-4.155.041-8.634-.228-4.692.833-7.984 1.994-10.128a12.182 12.182 0 011.642-2.357 8.21 8.21 0 01.753-.736l.054-.044.018-.014.007-.005.003-.002v-.001c.001 0 .002-.001.606.796l-.604-.797a1 1 0 011.16-.034l2.206 1.477 3.416-1.806c-.33-2.407-1.213-4.87-2.677-7.398a1 1 0 01.364-1.366zM11.237 23.798l-.002-.001h.001l.001.001zM26 47.388l-.033 1h.066l-.033-1z"/><path d="M26 26.283a.207.207 0 100-.413.207.207 0 000 .413zm-1.793-.206a1.793 1.793 0 113.587 0 1.793 1.793 0 01-3.587 0zM26 31.865a.207.207 0 100-.413.207.207 0 000 .413zm-1.793-.206a1.793 1.793 0 113.587 0 1.793 1.793 0 01-3.587 0z"/></g><defs><filter id="filter0_d" x="0" y="0" width="52" height="56.389" filterUnits="userSpaceOnUse" color-interpolation-filters="sRGB"><feFlood flood-opacity="0" result="BackgroundImageFix"/><feColorMatrix in="SourceAlpha" values="0 0 0 0 0 0 0 0 0 0 0 0 0 0 0 0 0 0 127 0"/><feOffset dy="4"/><feGaussianBlur stdDeviation="2"/><feColorMatrix values="0 0 0 0 0 0 0 0 0 0 0 0 0 0 0 0 0 0 0.25 0"/><feBlend in2="BackgroundImageFix" result="effect1_dropShadow"/><feBlend in="SourceGraphic" in2="effect1_dropShadow" result="shape"/></filter></defs></svg>