<svg width="63" height="62" fill="none" xmlns="http://www.w3.org/2000/svg"><path fill-rule="evenodd" clip-rule="evenodd" d="M31 1.5C14.708 1.5 1.5 14.708 1.5 31S14.708 60.5 31 60.5a29.362 29.362 0 0016.867-5.295l.136-.094 13.339.37-3.377-12.496.07-.161A29.399 29.399 0 0060.5 31C60.5 14.708 47.292 1.5 31 1.5zM.5 31C.5 14.155 14.155.5 31 .5S61.5 14.155 61.5 31a30.4 30.4 0 01-2.478 12.063l3.636 13.456-14.354-.4A30.362 30.362 0 0131 61.5C14.155 61.5.5 47.845.5 31z" fill="#BBB"/><path fill-rule="evenodd" clip-rule="evenodd" d="M19.328 21.72h-.017a1.962 1.962 0 00-.166.01 3.356 3.356 0 00-1.527.528c-.9.587-1.616 1.69-1.616 3.528v12.881a3.255 3.255 0 00.029.51c.04.307.14.73.382 1.162.527.944 1.588 1.69 3.395 1.69h22.225v-2H19.808c-1.177 0-1.519-.432-1.649-.665a1.306 1.306 0 01-.159-.626l.002-.026V25.786c0-1.253.447-1.683.71-1.855a1.358 1.358 0 01.6-.209l.021-.001h4.49v-2h-4.495z" fill="#CBC7C7"/><path fill-rule="evenodd" clip-rule="evenodd" d="M45.215 45.55L17.373 17.707l1.414-1.414L46.63 44.136l-1.414 1.414z" fill="#CBC7C7"/><path fill-rule="evenodd" clip-rule="evenodd" d="M28.061 27.148a4.757 4.757 0 106.652 6.681l1.588 1.216a6.757 6.757 0 11-9.447-9.492l1.207 1.595zm-.128-7.439c-.084.126-.256.372-.46.663l-1.637-1.15c.22-.314.383-.547.445-.64.351-.528.864-.74 1.206-.826a2.463 2.463 0 01.633-.073h5.692a2.284 2.284 0 01.633.073c.342.086.854.298 1.206.825.136.206.7 1.005 1.244 1.773l.721 1.016.23.325c.048.012.132.026.262.026h4.512a1.962 1.962 0 01.167.008 3.354 3.354 0 011.527.528c.9.588 1.615 1.69 1.615 3.53v12.325h-2V25.786c0-1.253-.446-1.682-.71-1.854a1.355 1.355 0 00-.62-.211h-4.49c-.53 0-.944-.112-1.259-.281a1.75 1.75 0 01-.37-.263 1.427 1.427 0 01-.177-.202l-.317-.446-.723-1.02c-.52-.733-1.091-1.543-1.264-1.8a.456.456 0 00-.121-.026h-5.824a.454.454 0 00-.122.026zm10 2.108zm-.137-.14l.001.001z" fill="#CBC7C7"/><path d="M40.689 28.341a1.345 1.345 0 100-2.69 1.345 1.345 0 000 2.69z" fill="#BBB"/></svg>