<svg width="25" height="21" fill="none" xmlns="http://www.w3.org/2000/svg"><path fill-rule="evenodd" clip-rule="evenodd" d="M12.5 3.518c.346-.29.826-.666 1.39-1.044 1.146-.766 2.728-1.594 4.258-1.58 1.3.014 2.956.442 4.257 1.513 1.325 1.09 2.243 2.817 2.075 5.319-.041.615-.279 1.272-.625 1.932-.348.665-.823 1.363-1.374 2.068-1.102 1.41-2.535 2.884-3.948 4.215a80.776 80.776 0 01-3.868 3.404 81.14 81.14 0 01-1.625 1.309l-.094.073-.025.019-.008.006-.305-.396.305.396-.011.009-.011.007a.693.693 0 01-.393.127.67.67 0 01-.403-.137l-.008-.005.305-.397-.305.397-.008-.007-.025-.019-.094-.073a81.507 81.507 0 01-1.624-1.308 80.758 80.758 0 01-3.87-3.404c-1.412-1.332-2.845-2.805-3.947-4.215-.55-.705-1.026-1.404-1.375-2.069C.798 8.998.561 8.341.52 7.726c-.168-2.502.75-4.228 2.074-5.319C3.896 1.336 5.551.907 6.851.895c1.323-.013 2.678.603 3.75 1.255.783.476 1.452.995 1.898 1.368zm0 16.289l.275-.217c.301-.24.733-.586 1.252-1.015a79.81 79.81 0 003.82-3.361c1.396-1.316 2.789-2.75 3.846-4.103.528-.677.965-1.323 1.277-1.917.314-.6.484-1.115.512-1.535.147-2.189-.643-3.6-1.712-4.48-1.092-.898-2.513-1.273-3.632-1.284M12.5 19.807l-.275-.217c-.301-.24-.733-.586-1.252-1.015a79.855 79.855 0 01-3.82-3.36c-1.396-1.317-2.789-2.75-3.846-4.104-.528-.676-.965-1.323-1.277-1.917-.314-.6-.484-1.115-.512-1.535m10.235-3.461c-.416-.341-1-.785-1.672-1.194-1.025-.623-2.182-1.12-3.22-1.11m5.74 2.867l-2.135 2.176-.714-.7 2-2.04m.849.564l.002-.002.024-.023a13.43 13.43 0 01.48-.422c.328-.276.793-.643 1.34-1.008 1.115-.746 2.48-1.423 3.691-1.411M1.518 7.659c-.147-2.189.643-3.6 1.712-4.48zm1.712-4.48c1.092-.898 2.512-1.273 3.631-1.284z" fill="#333"/></svg>