<svg width="140" height="26" fill="none" xmlns="http://www.w3.org/2000/svg"><path d="M0 25.189l2.905-1.628V1.985L0 .34V0h18.215v6.488h-.165L14.981.763H6.67v11.293h5.39l2.137-3.262h.305v7.377h-.305l-2.138-3.353h-5.39v11.947H16.2l3.995-5.743.159.018-.944 6.488H0v-.339zM38.132 0H28.18v.339l2.904 1.646v21.576l-2.904 1.628v.339h18.087l.944-6.488-.159-.018-3.995 5.743H34.85V1.985L38.132.34V0zm19.745 23.561l-2.904 1.628v.339H74.38l.945-6.488-.159-.018-3.995 5.743h-9.53V12.818h5.389l2.137 3.353h.305V8.794h-.305l-2.137 3.262h-5.39V.763h8.313l3.07 5.725h.163V0H54.974v.339l2.904 1.646v21.576zm64.693 1.646l-2.996-1.912V3.728L135.877 26l1.127-.472V2.233L140 .321V0h-6.797v.32l2.996 1.912v18.12L121.322 0h-5.475v.339l2.959 1.646v21.31l-2.959 1.912v.321h6.723v-.32zm-28.729-8.031v-.762h4.66l-4.66-13.03V0h2.625l8.739 23.561 3.015 1.628v.34H98.196v-.34l2.874-1.646-2.284-6.367h-4.945zm0-17.176v3.383l-4.658 13.03h4.658v.763h-4.944l-2.266 6.367h.018l3.752 1.646v.339h-7.905v-.339l3.191-1.628L93.215 2.73 91.52.34V0h2.32z" fill="#000"/></svg>