<svg width="17" height="15" fill="none" xmlns="http://www.w3.org/2000/svg"><path fill-rule="evenodd" clip-rule="evenodd" d="M6.353 1.131C6.933.73 7.69.5 8.633.5c1.765 0 2.9.815 3.42 1.904.502 1.049.408 2.315-.184 3.18-.464.679-1.473 1.956-2.203 2.753l6.662 5.786A.5.5 0 0116 15H1a.5.5 0 01-.329-.877L1 14.5l-.329-.377.177-.153a243.1 243.1 0 012.073-1.779c1.248-1.059 2.757-2.317 3.777-3.09a.5.5 0 01.604.798c-.995.753-2.485 1.995-3.734 3.055-.454.384-.874.744-1.225 1.046h12.319L8.613 8.747a.5.5 0 01-.02-.736c.645-.626 1.923-2.22 2.45-2.99.379-.554.465-1.439.108-2.186-.338-.708-1.1-1.335-2.519-1.335-.778 0-1.327.188-1.709.453-.382.265-.63.629-.767 1.038-.287.848-.084 1.824.31 2.322a.5.5 0 01-.784.62c-.621-.784-.86-2.12-.474-3.262a3.025 3.025 0 011.145-1.54z" fill="#B59475"/></svg>